<svg xmlns="http://www.w3.org/2000/svg" xmlns:xlink="http://www.w3.org/1999/xlink" height="406.007" width="329.778"><defs><linearGradient id="prefix__a"><stop offset="0" stop-color="#c2c2c2"/><stop offset="1" stop-color="#9f9f9f"/></linearGradient><linearGradient gradientTransform="translate(-45.255 .354)" gradientUnits="userSpaceOnUse" y2="108.776" x2="658.458" y1="6.6" x1="660.067" id="prefix__b" xlink:href="#prefix__a"/></defs><g transform="translate(-399.134 -122.79)"><rect ry="7.014" y="122.791" x="399.134" height="406.007" width="329.778" fill="#eee"/><g transform="translate(43.778 191.042)"><rect width="82.49" height="90.47" x="398.758" y="178.747" ry="8.397" transform="rotate(-16.343)" fill="#9f9f9f"/><g transform="rotate(16.32 538.136 -184.897)" stroke="#fff" stroke-linecap="round" stroke-linejoin="round"><rect ry="4.596" y="1.65" x="547.186" height="115.966" width="107.834" fill="url(#prefix__b)" stroke-width="5.398"/><g stroke-width="13.071" color="#000" fill-rule="evenodd"><path style="isolation:auto;mix-blend-mode:normal;solid-color:#000;solid-opacity:1;marker:none" overflow="visible" fill="#ccc" d="M559.11 12.207h84.792V89.9H559.11z" stroke-width="2.25670815"/><path style="isolation:auto;mix-blend-mode:normal;solid-color:#000;solid-opacity:1;marker:none" overflow="visible" fill="#fff" d="M559.11 12.207h84.792v36.257H559.11z" stroke-width="2.25670815"/><path style="isolation:auto;mix-blend-mode:normal;solid-color:#000;solid-opacity:1;marker:none" d="M564.29 48.464l6.64-9.243 10.451-7.797 2.742 3.207 2.35-6.68 1.417-.514 2.298-4.87 31.078 31.077" overflow="visible" fill="#ccc" paint-order="stroke" stroke-width="2.25670815"/><path style="isolation:auto;mix-blend-mode:normal;solid-color:#000;solid-opacity:1;marker:none" d="M590.188 22.566a152.896 152.896 0 012.964 15.173l-3.81-1.237-7.96-5.078.918 8.015-.279 4.28 1.736 5.245 12.636-2.03 14.513-3.65-8.253-13.368-1.674 2.578-4.683-3.82z" overflow="visible" fill="#b3b3b3" paint-order="stroke" stroke-width="2.25670815"/><path d="M585.008 53.644l14.14-12.85 3.196-1.672 4.083-7.63 4.48-3.746 31.077 31.078" style="isolation:auto;mix-blend-mode:normal;solid-color:#000;solid-opacity:1;marker:none" overflow="visible" fill="#ccc" paint-order="stroke" stroke-width="2.25670815"/><path style="isolation:auto;mix-blend-mode:normal;solid-color:#000;solid-opacity:1;marker:none" d="M610.906 27.746l6.205 13.97v10.397l3.878 3.361a14.081 14.081 0 013.875-2.711c2.56-1.21 5.41-1.616 8.144-2.352 1.11-.299 2.229-.665 3.145-1.36a5.15 5.15 0 00.652-.587h-5.18l-6.996-7-5.155-8.447-1.77 1.526z" overflow="visible" fill="#b3b3b3" paint-order="stroke" stroke-width="2.25670815"/><path style="isolation:auto;mix-blend-mode:normal;solid-color:#000;solid-opacity:1;marker:none" d="M585.008 89.902c-.072-1.658-1.522-3.04 2.957-5.295 5.496-2.767 21.736-6.197 26.27-10.357 3.354-3.078-12.158-6.504-9.5-10.2 1.206-1.675 10.194-3.447 14.184-5.226 3.782-1.687 2.614-3.42 5.422-5.176 2.712-1.696 11.8-3.414 12.464-5.184-1.798 1.817-11.885 3.523-15.54 5.18-3.856 1.749-3.706 3.441-8.534 5.09-5.201 1.778-15.39 3.55-17.733 5.27-4.905 3.603 8.091 7.355 2.798 10.359-7.17 4.068-25.785 7.475-33.506 10.359-5.336 1.993-4.905 3.064-5.18 5.18" overflow="visible" fill="#fff" paint-order="stroke" stroke-width="2.25670815"/></g></g></g><text y="412.125" x="562.007" style="line-height:1.25" font-weight="400" font-size="32" font-family="sans-serif" fill="#767676"><tspan style="-inkscape-font-specification:'sans-serif Bold';text-align:center" y="412.125" x="562.007" font-weight="700" text-anchor="middle">NO IMAGE</tspan><tspan style="-inkscape-font-specification:'sans-serif Bold';text-align:center" y="452.125" x="562.007" font-weight="700" text-anchor="middle">AVAILABLE</tspan></text></g></svg>